# xmcd
#
# Track frame offsets:
#	150
#	18085
#	34645
#	56810
#	72650
#	104465
#	119660
#	139405
#	162170
#	175545
#	191957
#
# Disc length: 2773 seconds
#
# Revision: 0
# Processed by: cddbd v1.5.2PL0 Copyright (c) Steve Scherf et al.
# Submitted via: EasyCDDAExtractor 16.0.6.1
#
DISCID=a00ad30b
DTITLE=Bulutsuzluk Özlemi - UCTU UCTU
DYEAR=1990
DGENRE=
TTITLE0=GÜN BASLYIOR
TTITLE1=LAGARA LUGARA
TTITLE2=TEPEDEKI CIMENLIK
TTITLE3=EVET EVET
TTITLE4=BEYNIM ZONKLUYOR
TTITLE5=BAYRAM GÖRÜSMESI
TTITLE6=HIROSIMA
TTITLE7=SILI´ YE ÖZGÜRLÜK
TTITLE8=ACIL DEMOKRASI
TTITLE9=UCTU UCTU
TTITLE10=SÖZLERIMI GERI ALAMAM
EXTD=YEAR: 1990\n
EXTT0=
EXTT1=
EXTT2=
EXTT3=
EXTT4=
EXTT5=
EXTT6=
EXTT7=
EXTT8=
EXTT9=
EXTT10=
PLAYORDER=
